<?xml version="1.0"?>
<svg xmlns="http://www.w3.org/2000/svg" viewBox="0 0 512 512" width="512" height="512"><g id="Filled_Outline" data-name="Filled Outline"><path d="M487.42,425.55a23.874,23.874,0,0,1-15.56,17.32,8.09,8.09,0,0,0-4.81,11.27,23.619,23.619,0,0,1-1.68,23.14,24.17,24.17,0,0,1-25.22,10.15,23.769,23.769,0,0,1-16.89-32.49L320,411.63V360l43.72,18.34,78.21,32.8a24.076,24.076,0,0,1,35.26-10.61A23.785,23.785,0,0,1,487.42,425.55Z" style="fill:#ffb531"/><polygon points="363.72 378.34 320 396.15 320 360 363.72 378.34" style="fill:#ffa912"/><path d="M192,332.372,88.743,289.061a23.764,23.764,0,0,0-16.892-32.488A24.157,24.157,0,0,0,46.633,266.72a23.621,23.621,0,0,0-1.685,23.142,8.094,8.094,0,0,1-4.8,11.272,23.858,23.858,0,1,0,29.929,31.723L192,384Z" style="fill:#ffb531"/><path d="M192,411.628,88.743,454.939a23.764,23.764,0,0,1-16.892,32.488A24.157,24.157,0,0,1,46.633,477.28a23.621,23.621,0,0,1-1.685-23.142,8.094,8.094,0,0,0-4.8-11.272,23.858,23.858,0,1,1,29.929-31.723L192,360Z" style="fill:#ffb531"/><path d="M320,332.372l103.257-43.311a23.764,23.764,0,0,1,16.892-32.488,24.157,24.157,0,0,1,25.218,10.147,23.621,23.621,0,0,1,1.685,23.142,8.094,8.094,0,0,0,4.805,11.272,23.858,23.858,0,1,1-29.929,31.723L320,384Z" style="fill:#ffb531"/><path d="M400,168v80a32,32,0,0,1-32,32H320v56H192V280H144a32,32,0,0,1-32-32V168a144,144,0,1,1,288,0Z" style="fill:#f35244"/><path d="M400,168v80a32,32,0,0,1-32,32H320v56H192V280H161.83c99.27-23.53,182.04-67.69,231.44-155.63A143.917,143.917,0,0,1,400,168Z" style="fill:#ea4a3b"/><circle cx="192" cy="184" r="48" style="fill:#662e13"/><circle cx="320" cy="184" r="48" style="fill:#662e13"/><path d="M328,368v48H184V368a72,72,0,1,1,144,0Z" style="fill:#348fd9"/><path d="M328,368v48H234.84c26.2-25.91,48.08-60.17,64.18-105.74A71.907,71.907,0,0,1,328,368Z" style="fill:#3086cd"/><circle cx="256" cy="416" r="72" style="fill:#2d7dbf"/><path d="M290.907,305.047a112.074,112.074,0,0,0-22.68-49.764,15.659,15.659,0,0,0-24.454,0,112.074,112.074,0,0,0-22.68,49.764,71.866,71.866,0,0,1,69.814,0Z" style="fill:#3086cd"/><path d="M304,424V408H286.864a31.682,31.682,0,0,0-3.4-8.154l12.128-12.131L284.281,376.4l-12.128,12.132a31.641,31.641,0,0,0-8.153-3.4V368H248v17.136a31.641,31.641,0,0,0-8.153,3.4L227.719,376.4l-11.313,11.313,12.128,12.131a31.682,31.682,0,0,0-3.4,8.154H208v16h17.136a31.682,31.682,0,0,0,3.4,8.154l-12.128,12.131L227.719,455.6l12.128-12.132a31.641,31.641,0,0,0,8.153,3.4V464h16V446.864a31.641,31.641,0,0,0,8.153-3.4L284.281,455.6l11.313-11.313-12.128-12.131a31.682,31.682,0,0,0,3.4-8.154Z" style="fill:#2a71ad"/><path d="M16.761,316.7a31.933,31.933,0,0,0,13.717,33.476,32.311,32.311,0,0,0,27.02,3.772,31.871,31.871,0,0,0,15.892-11L142.677,372,73.39,401.057a31.871,31.871,0,0,0-15.892-11,32.318,32.318,0,0,0-27.015,3.768,31.682,31.682,0,0,0,7.109,56.633.523.523,0,0,1,.194.1.42.42,0,0,1-.046.157,31.366,31.366,0,0,0,2.183,30.912A32.262,32.262,0,0,0,66.8,496a30.892,30.892,0,0,0,6.825-.759,32.1,32.1,0,0,0,21.6-16.718A31.444,31.444,0,0,0,98.3,459.614l78.435-32.927a79.979,79.979,0,0,0,158.53,0L413.7,459.614a31.444,31.444,0,0,0,3.076,18.907,32.1,32.1,0,0,0,21.614,16.721,30.822,30.822,0,0,0,6.818.758,32.236,32.236,0,0,0,26.842-14.333,31.377,31.377,0,0,0,2.22-30.932.763.763,0,0,1-.059-.168c.008-.014.06-.065.231-.122a31.68,31.68,0,0,0,7.08-56.617,32.313,32.313,0,0,0-27.02-3.772,31.871,31.871,0,0,0-15.892,11L369.325,372l69.285-29.057a31.871,31.871,0,0,0,15.892,11,32.307,32.307,0,0,0,27.015-3.768,31.682,31.682,0,0,0-7.109-56.633.523.523,0,0,1-.194-.1.42.42,0,0,1,.046-.157,31.366,31.366,0,0,0-2.183-30.912,32.065,32.065,0,0,0-55.3,3.1,31.444,31.444,0,0,0-3.076,18.907L328,320.365V288h40a40.045,40.045,0,0,0,40-40V168c0-83.813-68.187-152-152-152A151.943,151.943,0,0,0,104,168v80a40.045,40.045,0,0,0,40,40h40v32.365L98.3,284.386a31.444,31.444,0,0,0-3.076-18.907,32.065,32.065,0,0,0-55.274-3.146,31.377,31.377,0,0,0-2.22,30.932.763.763,0,0,1,.059.168c-.008.014-.06.065-.231.122A31.907,31.907,0,0,0,16.761,316.7ZM85.623,447.583a8,8,0,0,0-4.249,10.544,15.469,15.469,0,0,1-.419,13.156,15.924,15.924,0,0,1-10.886,8.355,16.209,16.209,0,0,1-16.74-6.746,15.321,15.321,0,0,1-1.14-15.307,16.09,16.09,0,0,0-9.426-22.27,15.979,15.979,0,0,1-10.4-11.579,15.693,15.693,0,0,1,6.764-16.444,16.13,16.13,0,0,1,13.662-1.946,15.8,15.8,0,0,1,9.934,8.9A8,8,0,0,0,73.174,418.5L176,375.377v34.265ZM256,304a64.072,64.072,0,0,1,64,64v.055a79.918,79.918,0,0,0-128,0V368A64.072,64.072,0,0,1,256,304Zm-23.07-12.6a104.119,104.119,0,0,1,17.091-31.125,7.657,7.657,0,0,1,11.958,0,104.119,104.119,0,0,1,17.09,31.124,79.853,79.853,0,0,0-46.139,0ZM256,480a64,64,0,1,1,64-64A64.072,64.072,0,0,1,256,480Zm182.826-61.5a8,8,0,0,0,10.456-4.248,15.8,15.8,0,0,1,9.934-8.9,16.134,16.134,0,0,1,13.668,1.95,15.683,15.683,0,0,1,6.762,16.42A15.97,15.97,0,0,1,469.271,435.3a16.092,16.092,0,0,0-9.451,22.3,15.333,15.333,0,0,1-1.176,15.328,16.185,16.185,0,0,1-16.7,6.707,15.932,15.932,0,0,1-10.9-8.358,15.469,15.469,0,0,1-.419-13.156,8,8,0,0,0-4.249-10.544L336,409.642V385.964l12.637-5.29ZM426.377,296.417a8,8,0,0,0,4.249-10.544,15.469,15.469,0,0,1,.419-13.156,15.924,15.924,0,0,1,10.886-8.355,16.211,16.211,0,0,1,16.74,6.746,15.321,15.321,0,0,1,1.14,15.307,16.09,16.09,0,0,0,9.426,22.27,15.979,15.979,0,0,1,10.4,11.579,15.693,15.693,0,0,1-6.764,16.444,16.127,16.127,0,0,1-13.662,1.946,15.8,15.8,0,0,1-9.934-8.9,8,8,0,0,0-10.456-4.248l-93.275,39.119-9.551,4V368a79.545,79.545,0,0,0-6.259-31.013ZM144,272a24.027,24.027,0,0,1-24-24V168A135.945,135.945,0,0,1,256,32c74.99,0,136,61.009,136,136v80a24.027,24.027,0,0,1-24,24H320a8,8,0,0,0-8,8v30.941a80.533,80.533,0,0,0-13.949-10.958,120.465,120.465,0,0,0-23.577-49.7,23.658,23.658,0,0,0-36.948,0,120.452,120.452,0,0,0-23.578,49.7A80.482,80.482,0,0,0,200,310.941V280a8,8,0,0,0-8-8ZM42.729,308.7a16.092,16.092,0,0,0,9.451-22.3,15.333,15.333,0,0,1,1.176-15.328,16.191,16.191,0,0,1,16.7-6.707,15.932,15.932,0,0,1,10.9,8.358,15.469,15.469,0,0,1,.419,13.156,8,8,0,0,0,4.249,10.544l96.636,40.57a79.357,79.357,0,0,0-5.579,20.755l-13.317,5.584L73.174,325.5a8,8,0,0,0-10.456,4.248,15.8,15.8,0,0,1-9.934,8.9,16.13,16.13,0,0,1-13.668-1.95,15.683,15.683,0,0,1-6.762-16.42A15.97,15.97,0,0,1,42.729,308.7Z"/><path d="M248,184a56,56,0,1,0-56,56A56.063,56.063,0,0,0,248,184Zm-96,0a40,40,0,1,1,40,40A40.045,40.045,0,0,1,152,184Z"/><path d="M320,240a56,56,0,1,0-56-56A56.063,56.063,0,0,0,320,240Zm0-96a40,40,0,1,1-40,40A40.045,40.045,0,0,1,320,144Z"/><path d="M283.556,399.758,295.6,387.716,284.284,376.4l-12.042,12.042A31.826,31.826,0,0,0,264,385.013V368H248v17.013a31.826,31.826,0,0,0-8.242,3.431L227.716,376.4,216.4,387.716l12.043,12.042A31.826,31.826,0,0,0,225.013,408H208v16h17.013a31.826,31.826,0,0,0,3.431,8.242L216.4,444.284,227.716,455.6l12.042-12.042A31.826,31.826,0,0,0,248,446.987V464h16V446.987a31.826,31.826,0,0,0,8.242-3.431L284.284,455.6,295.6,444.284l-12.043-12.042A31.826,31.826,0,0,0,286.987,424H304V408H286.987A31.826,31.826,0,0,0,283.556,399.758ZM256,432a16,16,0,1,1,16-16A16.019,16.019,0,0,1,256,432Z"/></g></svg>
